HIERARCHY
ROOT hip
{
	OFFSET 0.000000 0.000000 0.000000 
	CHANNELS 6 Xposition Yposition Zposition Xrotation Zrotation Yrotation
	JOINT abdomen
	{
		OFFSET 0.000000 3.402643 0.000000 
		CHANNELS 3 Xrotation Zrotation Yrotation
		JOINT chest
		{
			OFFSET 0.000000 8.438565 -0.680529 
			CHANNELS 3 Xrotation Zrotation Yrotation
			JOINT neck
			{
				OFFSET 0.000000 10.207942 -0.272212 
				CHANNELS 3 Xrotation Zrotation Yrotation
				JOINT head
				{
					OFFSET 0.000000 3.130431 0.000000 
					CHANNELS 3 Xrotation Zrotation Yrotation
					End Site
					{
						OFFSET 0.000000 3.130435 0.000000 
					}
				}
			}
			JOINT lCollar
			{
				OFFSET 3.470700 6.669187 -0.816635 
				CHANNELS 3 Yrotation Zrotation Xrotation
				JOINT lShldr
				{
					OFFSET 3.198488 0.000000 0.000000 
					CHANNELS 3 Zrotation Yrotation Xrotation
					JOINT lForeArm
					{
						OFFSET 10.139888 0.000000 0.000000 
						CHANNELS 3 Yrotation Zrotation Xrotation
						JOINT lHand
						{
							OFFSET 8.370511 0.000000 0.000000 
							CHANNELS 3 Zrotation Yrotation Xrotation
							End Site
							{
								OFFSET 4.083176 0.000000 0.000000 
							}
						}
					}
				}
			}
			JOINT rCollar
			{
				OFFSET -3.470700 6.669187 -0.816635 
				CHANNELS 3 Yrotation Zrotation Xrotation
				JOINT rShldr
				{
					OFFSET -3.198488 0.000000 0.000000 
					CHANNELS 3 Zrotation Yrotation Xrotation
					JOINT rForeArm
					{
						OFFSET -10.139888 0.000000 0.000000 
						CHANNELS 3 Yrotation Zrotation Xrotation
						JOINT rHand
						{
							OFFSET -8.370511 0.000000 0.000000 
							CHANNELS 3 Zrotation Yrotation Xrotation
							End Site
							{
								OFFSET -4.083176 0.000000 0.000000 
							}
						}
					}
				}
			}
		}
	}
	JOINT lThigh
	{
		OFFSET 5.308129 -1.633274 1.361059 
		CHANNELS 3 Xrotation Zrotation Yrotation
		JOINT lShin
		{
			OFFSET -2.041588 -20.007561 0.000000 
			CHANNELS 3 Xrotation Zrotation Yrotation
			JOINT lFoot
			{
				OFFSET 0.000000 -19.190928 -1.224953 
				CHANNELS 3 Xrotation Yrotation Zrotation
				End Site
				{
					OFFSET 0.000000 -2.449906 4.627600 
				}
			}
		}
	}
	JOINT rThigh
	{
		OFFSET -5.308129 -1.633274 1.361059 
		CHANNELS 3 Xrotation Zrotation Yrotation
		JOINT rShin
		{
			OFFSET 2.041588 -20.007561 0.000000 
			CHANNELS 3 Xrotation Zrotation Yrotation
			JOINT rFoot
			{
				OFFSET 0.000000 -19.190928 -1.224953 
				CHANNELS 3 Xrotation Yrotation Zrotation
				End Site
				{
					OFFSET 0.000000 -2.449906 4.627600 
				}
			}
		}
	}
}
MOTION
Frames: 14
Frame Time: 0.033333
-2.554862 37.760750 17.030111 -0.507813 0.908203 -40.302738 0.000000 0.000000 0.000000 5.351562 -1.884766 0.214844 43.613281 -1.347656 15.898208 -33.007813 -13.769531 26.882442 10.615235 -25.000000 23.763893 -32.412109 -17.304688 -14.511717 -95.361328 -2.216797 2.978893 16.123045 -14.414063 -9.541016 -8.203126 21.757813 22.763672 33.730469 32.548828 19.809942 95.996094 -2.900391 3.848150 -4.091797 13.193360 -6.628629 -31.777796 28.594143 3.880387 49.121090 -3.772320 0.499916 -1.741397 1.182201 -15.209970 -24.700092 -20.081915 -2.926959 54.469059 -3.241796 4.214667 -30.522692 -2.668604 7.949501 
-2.552634 37.694244 17.044056 -0.527344 0.791016 -40.136719 0.000000 0.000000 0.000000 5.351562 -1.875000 0.244141 44.052734 -0.761719 16.249868 -32.744141 -14.443358 27.353514 10.478517 -25.000000 23.666237 -32.636719 -17.431643 -14.218750 -95.332031 -2.216797 2.969128 16.435547 -14.003905 -9.553144 -8.369141 22.412109 22.929688 33.007813 32.412109 19.218750 96.035156 -2.890625 3.818852 -4.111328 13.154297 -6.630858 -32.074821 28.637560 3.607052 49.569485 -3.772032 0.403595 -1.738582 1.154846 -15.178517 -24.714968 -19.988707 -2.795276 54.872589 -3.281285 3.832089 -30.650747 -2.680056 7.930205 
-2.573919 37.600693 17.043343 -0.292969 0.712891 -39.589848 0.000000 0.000000 0.000000 5.312500 -1.816406 0.273128 44.267578 0.322266 16.650446 -32.285160 -15.400392 27.929689 10.156250 -25.000000 23.310547 -32.812504 -17.734377 -13.750000 -95.136719 -2.197265 3.203125 16.904299 -13.681642 -9.611686 -8.564453 23.398439 22.945343 32.050781 32.304688 18.638035 96.044922 -2.890625 3.818852 -4.179688 13.203124 -6.650391 -32.949398 28.711073 2.932989 50.132221 -3.782655 0.224761 -1.688660 1.143543 -15.139087 -24.858448 -19.878702 -3.167637 55.452698 -3.319710 3.441172 -30.998983 -2.598103 7.617912 
-2.642565 37.471138 17.030350 0.058594 0.673828 -38.749889 0.000000 0.000000 0.000000 5.253907 -1.669922 0.302450 44.326172 1.220703 17.197474 -31.533205 -16.435545 28.447268 9.863280 -25.000000 22.900391 -32.734375 -18.164063 -13.303823 -94.882813 -2.177735 3.554688 17.382813 -13.388673 -9.670230 -8.408203 23.984377 22.779234 31.630861 32.197269 18.188797 95.869141 -2.929688 4.375499 -4.365234 13.437501 -6.708985 -34.178165 28.758457 1.992637 50.766624 -3.763021 0.091840 -1.551716 1.135818 -15.084222 -25.065121 -19.821440 -3.917383 56.294880 -3.417624 3.013161 -31.591097 -2.469078 7.095543 
-2.777524 37.304413 17.001152 0.283203 0.546875 -37.665920 0.000000 0.000000 0.000000 5.224609 -1.406250 0.332031 44.365234 1.582031 17.841797 -30.566404 -17.363281 28.834978 9.736328 -25.000000 22.626947 -32.529297 -18.564453 -12.939452 -94.726563 -2.167969 3.633182 17.812502 -13.085938 -9.709244 -7.988281 24.111328 22.622965 31.728518 32.246094 17.895840 95.527344 -2.988281 5.244649 -4.511719 13.798828 -6.765249 -35.496403 28.758463 0.816611 51.525269 -3.751106 -0.123355 -1.285333 1.101803 -15.034358 -25.088152 -19.853783 -4.972888 57.457874 -3.523205 2.630588 -32.415970 -2.347367 6.566723 
-2.983880 37.101212 16.938463 0.273438 0.371094 -36.328094 0.000000 0.000000 0.000000 5.234375 -1.103516 0.370906 44.482422 1.542969 18.584166 -29.521484 -18.183592 29.238285 9.892578 -25.000000 22.646484 -32.216797 -18.935547 -12.698482 -94.697266 -2.197266 3.300781 18.125000 -12.958983 -9.755860 -7.617188 24.169922 22.691317 31.679684 32.666016 17.666018 95.244141 -3.007812 5.429687 -4.257813 14.082031 -6.728516 -36.721161 28.588417 -0.598278 52.315536 -3.743437 -0.536849 -0.917513 1.043750 -14.989735 -24.908363 -19.976904 -6.176594 58.894394 -3.681562 2.180348 -33.409225 -2.264810 6.171906 
-3.256250 36.867386 16.829655 0.097656 0.253906 -34.765591 0.000000 0.000000 0.000000 5.302734 -0.849609 0.468750 44.511723 1.269531 19.619358 -28.300781 -19.121094 29.804688 10.400391 -25.000000 22.900391 -31.699219 -19.316404 -12.561822 -94.648438 -2.226563 2.763672 18.115234 -13.251954 -9.804688 -7.207031 24.423830 23.013538 31.171877 33.417969 17.378424 95.078125 -2.949219 4.541517 -3.730469 14.033202 -6.591796 -37.978264 28.183432 -2.330019 53.065205 -3.734407 -0.984268 -0.347495 0.980242 -14.938517 -24.636749 -20.144541 -7.402551 60.553772 -3.846331 1.529201 -34.491524 -2.263914 5.972398 
-3.589867 36.626282 16.634321 -0.146484 0.234375 -32.998043 0.000000 0.000000 0.000000 5.371094 -0.634766 0.654189 44.208984 0.859375 21.191404 -26.582031 -20.302736 30.709503 11.171875 -25.000000 23.203125 -31.259768 -19.648438 -12.509765 -94.589844 -2.246094 2.266008 17.626953 -13.935547 -9.824217 -6.464844 24.648438 23.374834 30.683598 34.248047 17.153933 94.833984 -2.880860 3.369631 -3.398438 13.720702 -6.501590 -39.250126 27.544432 -4.408989 53.498451 -3.743780 -1.211027 0.307552 0.946448 -15.143400 -24.438267 -20.228905 -8.563075 62.365311 -4.032799 0.462966 -35.575138 -2.299213 5.980226 
-3.974992 36.423447 16.323622 -0.371094 0.302734 -30.917969 0.000000 0.000000 0.000000 5.429688 -0.458984 0.917890 43.564457 0.283203 23.486374 -24.179688 -21.572266 31.914059 12.207032 -25.000000 23.461159 -31.318357 -19.843750 -12.327536 -94.804688 -2.275391 1.914450 16.962889 -14.599609 -9.775392 -5.322266 24.804688 23.681643 30.585936 34.853516 17.021482 94.384766 -2.851563 2.685547 -3.203125 13.447266 -6.443041 -40.463181 26.647579 -6.753736 53.256710 -3.696995 -1.147963 1.064140 0.844865 -15.793344 -24.248159 -20.185677 -9.771369 64.053955 -4.198333 -0.917597 -36.488861 -2.418452 6.085712 
-4.393248 36.306290 15.890410 -0.673828 0.527344 -28.456993 0.000000 0.000000 0.000000 5.498047 -0.283203 1.259718 42.822266 -0.644531 26.318359 -21.445313 -22.529299 33.199383 13.603516 -25.000000 23.740232 -31.865236 -19.960938 -11.767579 -95.312500 -2.285156 1.689453 16.787109 -14.931639 -9.785154 -3.994141 24.941408 24.003908 30.781252 35.146484 16.704840 93.818359 -2.832031 2.373047 -2.607422 13.457031 -6.308594 -41.318867 25.494112 -8.980575 51.988377 -3.726347 -1.158368 2.228874 0.750720 -16.417042 -23.940529 -20.091928 -11.129467 65.424896 -4.355435 -2.648148 -37.197803 -2.537532 6.178526 
-4.825485 36.296638 15.337540 -1.162109 1.035156 -25.566162 0.000000 0.000000 0.000000 5.585938 -0.175781 1.630859 42.431641 -2.099609 29.150032 -19.160156 -22.958984 34.390720 15.419921 -25.000000 24.267578 -32.412109 -20.185547 -10.898437 -95.810547 -2.294922 1.591797 17.441406 -14.990235 -9.953699 -2.607422 24.931643 24.472654 31.083982 35.166016 16.074217 93.291016 -2.822265 2.060547 -1.572266 13.642578 -6.083984 -41.543839 24.147036 -10.365921 49.429897 -3.775186 -1.755245 4.207573 0.488498 -16.678988 -23.486311 -20.175753 -12.547550 66.381958 -4.472781 -4.717798 -37.637917 -2.620399 6.397142 
-5.257399 36.385429 14.665613 -1.826172 1.943359 -22.207031 0.000000 0.000000 0.000000 5.732421 -0.195313 1.972656 42.597656 -3.906250 31.444651 -17.832031 -23.066406 35.416100 17.451172 -25.000000 25.000000 -32.597656 -20.527344 -9.993659 -96.044922 -2.294922 1.562500 18.642578 -14.931641 -10.244141 -1.240234 24.521484 25.000000 31.484375 34.941402 15.445045 92.929688 -2.802735 1.865712 -0.927734 13.730469 -5.935181 -41.087467 22.781006 -10.439721 45.374928 -3.859989 -3.425864 6.859645 0.103748 -17.338564 -22.886501 -20.589705 -14.110217 66.927597 -4.551858 -6.941088 -37.824162 -2.760175 6.604760 
-5.674606 36.529755 13.900489 -2.412109 3.076172 -18.359377 0.000000 0.000000 0.000000 5.869141 -0.283203 2.255859 43.017578 -5.507813 33.045937 -17.285156 -23.085939 36.230469 19.296875 -25.000000 25.000000 -32.539063 -20.742188 -9.231974 -96.201172 -2.304688 1.376953 19.843750 -14.804688 -10.510307 -0.019531 23.867188 25.000000 31.953127 34.501953 15.093424 92.802734 -2.822266 2.002434 -1.103516 13.623047 -5.974261 -40.144241 21.610447 -9.228939 40.008659 -3.879259 -6.367471 9.230390 -0.279999 -19.481966 -22.254683 -21.345589 -16.177418 67.168228 -4.600503 -9.059805 -37.783257 -2.835356 6.866741 
-6.064438 36.667168 13.114746 -2.695313 4.082031 -14.277343 0.000000 0.000000 0.000000 5.947265 -0.292969 2.500000 43.378906 -6.601563 34.119972 -17.265625 -23.046873 36.845703 20.722658 -25.000000 25.000000 -32.539063 -20.556641 -8.675304 -96.621094 -2.333985 0.976960 20.634766 -14.736329 -10.695844 0.957031 23.330078 24.996134 32.226563 34.072269 14.878519 92.851563 -2.832031 2.236810 -1.406250 13.447266 -6.032886 -39.001835 20.907307 -7.266192 34.573963 -3.927790 -9.814291 10.281191 -0.548840 -22.488731 -21.658794 -22.165083 -18.736908 67.257248 -4.600668 -10.740969 -37.570160 -2.913724 7.042067 
